<?xml version="1.0" encoding="utf-8"?>
<!-- Generator: Adobe Illustrator 28.0.0, SVG Export Plug-In . SVG Version: 6.00 Build 0)  -->
<svg version="1.1" id="Layer_1" xmlns="http://www.w3.org/2000/svg" xmlns:xlink="http://www.w3.org/1999/xlink" x="0px" y="0px"
	 viewBox="0 0 864 864" style="enable-background:new 0 0 864 864;" xml:space="preserve">
<style type="text/css">
	.st0{fill:#8B5E3C;}
	.st1{fill:#006838;stroke:#FFFFFF;stroke-miterlimit:10;}
	.st2{fill:#F7941D;stroke:#FFFFFF;stroke-miterlimit:10;}
	.st3{fill:#FFFFFF;stroke:#231F20;stroke-miterlimit:10;}
</style>
<path class="st0" d="M386.15,262.22c111.65,127.3,49.04,458.09,49.04,458.09h-66.54c0,0,62.61-330.78-49.04-458.09H386.15z"/>
<path class="st1" d="M389.3,265.35c0,0,109.57-32.35,164.87,65.74c0,0-31.3-173.22-172.17-114.78"/>
<path class="st1" d="M329.74,248.49c0,0-118.87-32.35-178.87,65.74c0,0,33.96-173.22,186.8-114.78"/>
<path class="st1" d="M339.18,282.31c0,0-126.67,28.73-138.3,145c0,0-47.22-170.49,123.34-192.45"/>
<path class="st1" d="M366.78,229.37c0,0-24.39-111.61,77.41-159.72c0,0-175.02,18.78-126.85,163.48"/>
<path class="st1" d="M386.96,237.5c0,0,62.09-95.9,167.93-57.47c0,0-136.55-111.08-205.41,25"/>
<circle class="st2" cx="354.34" cy="249.65" r="45.39"/>
<path class="st3" d="M620.13,332.13"/>
</svg>
