<?xml version="1.0" encoding="utf-8"?>
<!-- Generator: Adobe Illustrator 28.0.0, SVG Export Plug-In . SVG Version: 6.00 Build 0)  -->
<svg version="1.1" id="Layer_1" xmlns="http://www.w3.org/2000/svg" xmlns:xlink="http://www.w3.org/1999/xlink" x="0px" y="0px"
	 viewBox="0 0 864 864" style="enable-background:new 0 0 864 864;" xml:space="preserve">
<style type="text/css">
	.st0{fill:#F7941D;stroke:#FFFFFF;stroke-miterlimit:10;}
	.st1{fill:#F7941D;stroke:#BE1E2D;stroke-width:9;stroke-linecap:round;stroke-miterlimit:10;}
</style>
<path class="st0" d="M237,663h357c0,0,118-276,100-430s-122-13-122-13s-47-197-134-12c0,0-76-205-130-5c0,0-121-188-108,7
	c0,0-109-157-82,20S237,663,237,663z"/>
<line class="st1" x1="200" y1="210" x2="287" y2="552.15"/>
<line class="st1" x1="306.89" y1="202.45" x2="357" y2="552.15"/>
<line class="st1" x1="435.78" y1="210" x2="442.35" y2="552.15"/>
<line class="st1" x1="569.88" y1="219.86" x2="520.75" y2="558.53"/>
<path class="st1" d="M218,607.73c0,0,132-188.73,390,4.27"/>
</svg>
