<?xml version="1.0" encoding="utf-8"?>
<!-- Generator: Adobe Illustrator 27.9.0, SVG Export Plug-In . SVG Version: 6.00 Build 0)  -->
<svg version="1.1" id="Layer_1" xmlns="http://www.w3.org/2000/svg" xmlns:xlink="http://www.w3.org/1999/xlink" x="0px" y="0px"
	 viewBox="0 0 864 864" style="enable-background:new 0 0 864 864;" xml:space="preserve">
<style type="text/css">
	.st0{fill:#FFF200;stroke:#001017;stroke-miterlimit:10;}
	.st1{fill:#603913;stroke:#001017;stroke-miterlimit:10;}
</style>
<path class="st0" d="M415.24,32.58v589.3l38.24,0.09l400.62,0.99c8,0.02,12.69-9.1,8.08-15.71l-408.7-585.5l-9.49-13.6
	c-1.98-2.83-5.02-4.22-8.04-4.22c-3.48,0-6.93,1.83-8.75,5.37L415.24,32.58z"/>
<path class="st1" d="M453.92,19.29v637.09c0,0.19,0,0.38-0.01,0.57c-0.3,8.23-7.05,14.79-15.35,14.79h-7.96
	c-8.28,0-15.05-6.56-15.35-14.79c-0.01-0.19-0.01-0.38-0.01-0.57V19.29c0-8.49,6.88-15.36,15.36-15.36h7.96
	C447.05,3.93,453.92,10.8,453.92,19.29z"/>
<path class="st1" d="M855.52,656.95C855.52,771.3,664.01,864,427.76,864S0,771.3,0,656.95H855.52z"/>
</svg>
