<?xml version="1.0" encoding="utf-8"?>
<!-- Generator: Adobe Illustrator 28.0.0, SVG Export Plug-In . SVG Version: 6.00 Build 0)  -->
<svg version="1.1" id="Layer_1" xmlns="http://www.w3.org/2000/svg" xmlns:xlink="http://www.w3.org/1999/xlink" x="0px" y="0px"
	 viewBox="0 0 864 864" style="enable-background:new 0 0 864 864;" xml:space="preserve">
<style type="text/css">
	.st0{fill:#603913;}
	.st1{fill:#3C2415;stroke:#231F20;stroke-width:19;stroke-miterlimit:10;}
	.st2{fill:#F9ED32;stroke:#231F20;stroke-miterlimit:10;}
	.st3{fill:#3C2415;}
	.st4{fill:#F7941D;}
</style>
<path class="st0" d="M718.5,713h-542c-14.08,0-25.5-11.42-25.5-25.5v-283c0-14.08,11.42-25.5,25.5-25.5h542
	c14.08,0,25.5,11.42,25.5,25.5v283C744,701.58,732.58,713,718.5,713z"/>
<path class="st1" d="M633,85.13H262c-56.33,0-102,45.67-102,102v92c0,56.33,45.67,102,102,102h371c56.33,0,102-45.67,102-102v-92
	C735,130.8,689.33,85.13,633,85.13z"/>
<circle class="st2" cx="201.15" cy="364.16" r="15"/>
<circle class="st2" cx="293.45" cy="328.39" r="15"/>
<circle class="st2" cx="281.99" cy="343.8" r="15"/>
<circle class="st2" cx="282.83" cy="367.78" r="15"/>
<circle class="st2" cx="263.7" cy="321.93" r="15"/>
<circle class="st2" cx="224.27" cy="345.83" r="15"/>
<circle class="st2" cx="214.56" cy="318.66" r="15"/>
<circle class="st2" cx="234.05" cy="317.97" r="15"/>
<circle class="st2" cx="266.99" cy="344.33" r="15"/>
<circle class="st2" cx="208.59" cy="333.88" r="15"/>
<circle class="st2" cx="245.07" cy="332.59" r="15"/>
<circle class="st2" cx="261.12" cy="362.05" r="15"/>
<circle class="st2" cx="187.83" cy="341.11" r="15"/>
<circle class="st2" cx="239.33" cy="354.31" r="15"/>
<circle class="st2" cx="235.63" cy="362.94" r="15"/>
<circle class="st2" cx="215.84" cy="355.13" r="15"/>
<circle class="st2" cx="293.47" cy="371.66" r="15"/>
<circle class="st2" cx="385.77" cy="335.89" r="15"/>
<circle class="st2" cx="374.31" cy="351.3" r="15"/>
<circle class="st2" cx="375.15" cy="375.29" r="15"/>
<circle class="st2" cx="356.03" cy="329.43" r="15"/>
<circle class="st2" cx="316.59" cy="353.34" r="15"/>
<circle class="st2" cx="306.88" cy="326.16" r="15"/>
<circle class="st2" cx="326.37" cy="325.48" r="15"/>
<circle class="st2" cx="359.32" cy="351.83" r="15"/>
<circle class="st2" cx="300.91" cy="341.38" r="15"/>
<circle class="st2" cx="337.39" cy="340.1" r="15"/>
<circle class="st2" cx="353.44" cy="369.55" r="15"/>
<circle class="st2" cx="280.15" cy="348.62" r="15"/>
<circle class="st2" cx="331.65" cy="361.81" r="15"/>
<circle class="st2" cx="327.95" cy="370.45" r="15"/>
<circle class="st2" cx="308.17" cy="362.64" r="15"/>
<circle class="st2" cx="517.53" cy="366.28" r="15"/>
<circle class="st2" cx="607.89" cy="325.88" r="15"/>
<circle class="st2" cx="597.23" cy="341.85" r="15"/>
<circle class="st2" cx="599.29" cy="365.76" r="15"/>
<circle class="st2" cx="577.86" cy="320.94" r="15"/>
<circle class="st2" cx="539.69" cy="346.81" r="15"/>
<circle class="st2" cx="528.61" cy="320.16" r="15"/>
<circle class="st2" cx="548.04" cy="318.49" r="15"/>
<circle class="st2" cx="582.28" cy="343.14" r="15"/>
<circle class="st2" cx="523.42" cy="335.66" r="15"/>
<circle class="st2" cx="559.79" cy="332.53" r="15"/>
<circle class="st2" cx="577.31" cy="361.13" r="15"/>
<circle class="st2" cx="503.06" cy="343.94" r="15"/>
<circle class="st2" cx="555.16" cy="354.51" r="15"/>
<circle class="st2" cx="551.9" cy="363.32" r="15"/>
<circle class="st2" cx="531.74" cy="356.53" r="15"/>
<circle class="st2" cx="610.11" cy="369.09" r="15"/>
<circle class="st2" cx="700.48" cy="328.69" r="15"/>
<circle class="st2" cx="689.81" cy="344.66" r="15"/>
<circle class="st2" cx="691.87" cy="368.57" r="15"/>
<circle class="st2" cx="670.44" cy="323.75" r="15"/>
<circle class="st2" cx="632.27" cy="349.62" r="15"/>
<circle class="st2" cx="621.19" cy="322.97" r="15"/>
<circle class="st2" cx="640.62" cy="321.3" r="15"/>
<circle class="st2" cx="674.86" cy="345.95" r="15"/>
<circle class="st2" cx="616.01" cy="338.47" r="15"/>
<circle class="st2" cx="652.37" cy="335.34" r="15"/>
<circle class="st2" cx="669.89" cy="363.94" r="15"/>
<circle class="st2" cx="595.64" cy="346.75" r="15"/>
<circle class="st2" cx="647.74" cy="357.32" r="15"/>
<circle class="st2" cx="644.49" cy="366.13" r="15"/>
<circle class="st2" cx="624.33" cy="359.34" r="15"/>
<circle class="st2" cx="345" cy="357.01" r="15"/>
<circle class="st2" cx="438.5" cy="324.51" r="15"/>
<circle class="st2" cx="426.5" cy="339.51" r="15"/>
<circle class="st2" cx="426.5" cy="363.51" r="15"/>
<circle class="st2" cx="409" cy="317.01" r="15"/>
<circle class="st2" cx="368.75" cy="339.51" r="15"/>
<circle class="st2" cx="360" cy="312.01" r="15"/>
<circle class="st2" cx="379.5" cy="312.01" r="15"/>
<circle class="st2" cx="411.5" cy="339.51" r="15"/>
<circle class="st2" cx="353.5" cy="327.01" r="15"/>
<circle class="st2" cx="390" cy="327.01" r="15"/>
<circle class="st2" cx="405" cy="357.01" r="15"/>
<circle class="st2" cx="332.5" cy="333.51" r="15"/>
<circle class="st2" cx="383.5" cy="348.51" r="15"/>
<circle class="st2" cx="379.5" cy="357.01" r="15"/>
<circle class="st2" cx="360" cy="348.51" r="15"/>
<circle class="st2" cx="437" cy="367.76" r="15"/>
<circle class="st2" cx="530.5" cy="335.26" r="15"/>
<circle class="st2" cx="518.5" cy="350.26" r="15"/>
<circle class="st2" cx="518.5" cy="374.26" r="15"/>
<circle class="st2" cx="501" cy="327.76" r="15"/>
<circle class="st2" cx="460.75" cy="350.26" r="15"/>
<circle class="st2" cx="452" cy="322.76" r="15"/>
<circle class="st2" cx="471.5" cy="322.76" r="15"/>
<circle class="st2" cx="503.5" cy="350.26" r="15"/>
<circle class="st2" cx="445.5" cy="337.76" r="15"/>
<circle class="st2" cx="482" cy="337.76" r="15"/>
<circle class="st2" cx="497" cy="367.76" r="15"/>
<circle class="st2" cx="424.5" cy="344.26" r="15"/>
<circle class="st2" cx="475.5" cy="359.26" r="15"/>
<circle class="st2" cx="471.5" cy="367.76" r="15"/>
<circle class="st2" cx="452" cy="359.26" r="15"/>
<rect x="164" y="362" class="st3" width="565" height="32"/>
<ellipse class="st4" cx="441.5" cy="385.45" rx="31.77" ry="42.08"/>
<path class="st1" d="M441.5,375.29C443,397,443,397,443,397"/>
</svg>
